<svg width="160" height="29" viewBox="0 0 160 29" fill="none" xmlns="http://www.w3.org/2000/svg">
<path d="M38.1009 19V4.45455H44.1094C45.1984 4.45455 46.1383 4.66761 46.929 5.09375C47.7244 5.51515 48.3376 6.10464 48.7685 6.86222C49.1993 7.61506 49.4148 8.491 49.4148 9.49006C49.4148 10.4938 49.1946 11.3722 48.7543 12.125C48.3187 12.8731 47.696 13.4531 46.8864 13.8651C46.0767 14.277 45.1155 14.483 44.0028 14.483H40.2955V11.7131H43.3494C43.8797 11.7131 44.3224 11.6207 44.6776 11.4361C45.0374 11.2514 45.3097 10.9934 45.4943 10.6619C45.679 10.3258 45.7713 9.93513 45.7713 9.49006C45.7713 9.04025 45.679 8.65199 45.4943 8.32528C45.3097 7.99384 45.0374 7.73816 44.6776 7.55824C44.3177 7.37831 43.875 7.28835 43.3494 7.28835H41.6165V19H38.1009ZM56.0323 19.206C54.8912 19.206 53.9064 18.9811 53.0778 18.5312C52.2539 18.0767 51.6194 17.4304 51.1744 16.5923C50.734 15.7495 50.5138 14.7481 50.5138 13.5881C50.5138 12.4612 50.7364 11.4763 51.1815 10.6335C51.6265 9.78598 52.2539 9.12784 53.0636 8.65909C53.8732 8.18561 54.8273 7.94886 55.9258 7.94886C56.7023 7.94886 57.4125 8.0696 58.0565 8.31108C58.7004 8.55256 59.2567 8.91004 59.7255 9.38352C60.1942 9.85701 60.5588 10.4418 60.8192 11.1378C61.0797 11.8291 61.2099 12.6222 61.2099 13.517V14.3835H51.7283V12.3665H57.9783C57.9736 11.9972 57.886 11.6681 57.7156 11.3793C57.5451 11.0904 57.3107 10.8655 57.0124 10.7045C56.7189 10.5388 56.3803 10.456 55.9968 10.456C55.6085 10.456 55.2605 10.5436 54.9528 10.7188C54.645 10.8892 54.4012 11.1236 54.2212 11.4219C54.0413 11.7154 53.9466 12.0492 53.9371 12.4233V14.4759C53.9371 14.9209 54.0247 15.3116 54.1999 15.6477C54.3751 15.9792 54.6237 16.2372 54.9457 16.4219C55.2676 16.6065 55.6512 16.6989 56.0962 16.6989C56.404 16.6989 56.6834 16.6562 56.9343 16.571C57.1853 16.4858 57.4007 16.3603 57.5806 16.1946C57.7605 16.0289 57.8955 15.8253 57.9854 15.5838L61.1744 15.6761C61.0418 16.3911 60.7506 17.0137 60.3008 17.544C59.8557 18.0696 59.271 18.4792 58.5465 18.7727C57.8221 19.0616 56.984 19.206 56.0323 19.206ZM62.9837 23.0909V8.09091H66.4212V9.95881H66.5277C66.6697 9.62737 66.871 9.30777 67.1314 9C67.3965 8.69223 67.7327 8.44129 68.1399 8.24716C68.5518 8.0483 69.0443 7.94886 69.6172 7.94886C70.3748 7.94886 71.0826 8.14773 71.7408 8.54545C72.4036 8.94318 72.9387 9.55634 73.3459 10.3849C73.7531 11.2135 73.9567 12.2694 73.9567 13.5526C73.9567 14.7884 73.7602 15.8229 73.3672 16.6562C72.9789 17.4896 72.4534 18.1146 71.7905 18.5312C71.1323 18.9479 70.4008 19.1562 69.5959 19.1562C69.0466 19.1562 68.5708 19.0663 68.1683 18.8864C67.7659 18.7064 67.4273 18.4697 67.1527 18.1761C66.8828 17.8826 66.6745 17.5677 66.5277 17.2315H66.4567V23.0909H62.9837ZM66.3857 13.5455C66.3857 14.1326 66.4638 14.6439 66.62 15.0795C66.781 15.5152 67.0107 15.8537 67.3089 16.0952C67.612 16.3319 67.9742 16.4503 68.3956 16.4503C68.8217 16.4503 69.1839 16.3319 69.4822 16.0952C69.7805 15.8537 70.0054 15.5152 70.157 15.0795C70.3132 14.6439 70.3913 14.1326 70.3913 13.5455C70.3913 12.9583 70.3132 12.4493 70.157 12.0185C70.0054 11.5876 69.7805 11.2538 69.4822 11.017C69.1887 10.7803 68.8265 10.6619 68.3956 10.6619C67.9695 10.6619 67.6072 10.7779 67.3089 11.0099C67.0107 11.242 66.781 11.5734 66.62 12.0043C66.4638 12.4351 66.3857 12.9489 66.3857 13.5455ZM75.7766 23.0909V8.09091H79.2141V9.95881H79.3207C79.4627 9.62737 79.6639 9.30777 79.9244 9C80.1895 8.69223 80.5257 8.44129 80.9329 8.24716C81.3448 8.0483 81.8372 7.94886 82.4102 7.94886C83.1677 7.94886 83.8756 8.14773 84.5337 8.54545C85.1966 8.94318 85.7317 9.55634 86.1388 10.3849C86.546 11.2135 86.7496 12.2694 86.7496 13.5526C86.7496 14.7884 86.5531 15.8229 86.1602 16.6562C85.7719 17.4896 85.2463 18.1146 84.5835 18.5312C83.9253 18.9479 83.1938 19.1562 82.3888 19.1562C81.8396 19.1562 81.3638 19.0663 80.9613 18.8864C80.5588 18.7064 80.2203 18.4697 79.9457 18.1761C79.6758 17.8826 79.4674 17.5677 79.3207 17.2315H79.2496V23.0909H75.7766ZM79.1786 13.5455C79.1786 14.1326 79.2567 14.6439 79.413 15.0795C79.574 15.5152 79.8036 15.8537 80.1019 16.0952C80.4049 16.3319 80.7672 16.4503 81.1886 16.4503C81.6147 16.4503 81.9769 16.3319 82.2752 16.0952C82.5735 15.8537 82.7984 15.5152 82.9499 15.0795C83.1062 14.6439 83.1843 14.1326 83.1843 13.5455C83.1843 12.9583 83.1062 12.4493 82.9499 12.0185C82.7984 11.5876 82.5735 11.2538 82.2752 11.017C81.9817 10.7803 81.6194 10.6619 81.1886 10.6619C80.7624 10.6619 80.4002 10.7779 80.1019 11.0099C79.8036 11.242 79.574 11.5734 79.413 12.0043C79.2567 12.4351 79.1786 12.9489 79.1786 13.5455ZM93.6619 19.206C92.5161 19.206 91.5313 18.9716 90.7074 18.5028C89.8883 18.0294 89.2562 17.3712 88.8111 16.5284C88.3707 15.6809 88.1506 14.6984 88.1506 13.581C88.1506 12.4588 88.3707 11.4763 88.8111 10.6335C89.2562 9.78598 89.8883 9.12784 90.7074 8.65909C91.5313 8.18561 92.5161 7.94886 93.6619 7.94886C94.8078 7.94886 95.7902 8.18561 96.6094 8.65909C97.4332 9.12784 98.0653 9.78598 98.5057 10.6335C98.9508 11.4763 99.1733 12.4588 99.1733 13.581C99.1733 14.6984 98.9508 15.6809 98.5057 16.5284C98.0653 17.3712 97.4332 18.0294 96.6094 18.5028C95.7902 18.9716 94.8078 19.206 93.6619 19.206ZM93.6832 16.5852C94.0999 16.5852 94.4527 16.4574 94.7415 16.2017C95.0303 15.946 95.2505 15.5909 95.402 15.1364C95.5582 14.6818 95.6364 14.1562 95.6364 13.5597C95.6364 12.9536 95.5582 12.4233 95.402 11.9688C95.2505 11.5142 95.0303 11.1591 94.7415 10.9034C94.4527 10.6477 94.0999 10.5199 93.6832 10.5199C93.2524 10.5199 92.8878 10.6477 92.5895 10.9034C92.2959 11.1591 92.071 11.5142 91.9148 11.9688C91.7633 12.4233 91.6875 12.9536 91.6875 13.5597C91.6875 14.1562 91.7633 14.6818 91.9148 15.1364C92.071 15.5909 92.2959 15.946 92.5895 16.2017C92.8878 16.4574 93.2524 16.5852 93.6832 16.5852ZM104.425 4.45455V19H100.952V4.45455H104.425Z" fill="#27272A"/>
<path d="M113.943 15.9744L111.599 16.2301C111.533 15.9934 111.417 15.7708 111.251 15.5625C111.09 15.3542 110.873 15.1861 110.598 15.0582C110.323 14.9304 109.987 14.8665 109.589 14.8665C109.054 14.8665 108.605 14.9825 108.24 15.2145C107.88 15.4465 107.703 15.7472 107.707 16.1165C107.703 16.4337 107.819 16.6918 108.055 16.8906C108.297 17.0895 108.695 17.2528 109.249 17.3807L111.109 17.7784C112.142 18.0009 112.909 18.3537 113.411 18.8366C113.917 19.3196 114.173 19.9517 114.178 20.733C114.173 21.4195 113.972 22.0256 113.574 22.5511C113.181 23.072 112.634 23.4792 111.933 23.7727C111.232 24.0663 110.428 24.2131 109.518 24.2131C108.183 24.2131 107.108 23.9337 106.294 23.375C105.48 22.8116 104.994 22.0279 104.838 21.0241L107.345 20.7827C107.459 21.2751 107.7 21.6468 108.07 21.8977C108.439 22.1487 108.92 22.2741 109.511 22.2741C110.122 22.2741 110.612 22.1487 110.982 21.8977C111.356 21.6468 111.543 21.3366 111.543 20.9673C111.543 20.6548 111.422 20.3968 111.18 20.1932C110.944 19.9896 110.574 19.8333 110.072 19.7244L108.212 19.3338C107.165 19.116 106.391 18.7491 105.889 18.233C105.387 17.7121 105.139 17.054 105.143 16.2585C105.139 15.5862 105.321 15.0038 105.69 14.5114C106.064 14.0142 106.583 13.6307 107.246 13.3608C107.913 13.0862 108.683 12.9489 109.554 12.9489C110.832 12.9489 111.839 13.2211 112.572 13.7656C113.311 14.3101 113.768 15.0464 113.943 15.9744ZM118.869 17.608V24H116.298V9.45455H118.812V14.9446H118.94C119.195 14.3291 119.591 13.8437 120.126 13.4886C120.665 13.1288 121.352 12.9489 122.185 12.9489C122.943 12.9489 123.603 13.1075 124.167 13.4247C124.73 13.742 125.166 14.206 125.474 14.8168C125.786 15.4276 125.942 16.1733 125.942 17.054V24H123.371V17.4517C123.371 16.7178 123.182 16.1473 122.803 15.7401C122.429 15.3281 121.904 15.1222 121.227 15.1222C120.772 15.1222 120.365 15.2216 120.005 15.4205C119.65 15.6146 119.371 15.8963 119.167 16.2656C118.968 16.6349 118.869 17.0824 118.869 17.608ZM133.393 24.2131C132.299 24.2131 131.354 23.9858 130.559 23.5312C129.768 23.072 129.16 22.4233 128.734 21.5852C128.308 20.7424 128.094 19.7505 128.094 18.6094C128.094 17.4872 128.308 16.5024 128.734 15.6548C129.165 14.8026 129.766 14.1397 130.538 13.6662C131.309 13.188 132.216 12.9489 133.258 12.9489C133.93 12.9489 134.565 13.0578 135.161 13.2756C135.763 13.4886 136.293 13.8201 136.752 14.2699C137.216 14.7197 137.581 15.2926 137.846 15.9886C138.111 16.6799 138.244 17.5038 138.244 18.4602V19.2486H129.302V17.5156H135.779C135.774 17.0232 135.668 16.5852 135.46 16.2017C135.251 15.8134 134.96 15.508 134.586 15.2855C134.217 15.063 133.786 14.9517 133.293 14.9517C132.768 14.9517 132.306 15.0795 131.908 15.3352C131.511 15.5862 131.201 15.9176 130.978 16.3295C130.76 16.7367 130.649 17.1842 130.644 17.6719V19.1847C130.644 19.8191 130.76 20.3636 130.992 20.8182C131.224 21.268 131.549 21.6136 131.965 21.8551C132.382 22.0919 132.87 22.2102 133.428 22.2102C133.802 22.2102 134.141 22.1581 134.444 22.054C134.747 21.9451 135.01 21.7865 135.232 21.5781C135.455 21.3698 135.623 21.1117 135.737 20.804L138.137 21.0739C137.986 21.7083 137.697 22.2623 137.271 22.7358C136.849 23.2045 136.309 23.5691 135.651 23.8295C134.993 24.0852 134.24 24.2131 133.393 24.2131ZM145.248 24.2131C144.154 24.2131 143.21 23.9858 142.414 23.5312C141.624 23.072 141.015 22.4233 140.589 21.5852C140.163 20.7424 139.95 19.7505 139.95 18.6094C139.95 17.4872 140.163 16.5024 140.589 15.6548C141.02 14.8026 141.621 14.1397 142.393 13.6662C143.165 13.188 144.072 12.9489 145.113 12.9489C145.786 12.9489 146.42 13.0578 147.017 13.2756C147.618 13.4886 148.148 13.8201 148.608 14.2699C149.072 14.7197 149.436 15.2926 149.701 15.9886C149.967 16.6799 150.099 17.5038 150.099 18.4602V19.2486H141.157V17.5156H147.635C147.63 17.0232 147.523 16.5852 147.315 16.2017C147.107 15.8134 146.815 15.508 146.441 15.2855C146.072 15.063 145.641 14.9517 145.149 14.9517C144.623 14.9517 144.162 15.0795 143.764 15.3352C143.366 15.5862 143.056 15.9176 142.833 16.3295C142.616 16.7367 142.504 17.1842 142.5 17.6719V19.1847C142.5 19.8191 142.616 20.3636 142.848 20.8182C143.08 21.268 143.404 21.6136 143.821 21.8551C144.237 22.0919 144.725 22.2102 145.284 22.2102C145.658 22.2102 145.996 22.1581 146.299 22.054C146.602 21.9451 146.865 21.7865 147.088 21.5781C147.31 21.3698 147.478 21.1117 147.592 20.804L149.993 21.0739C149.841 21.7083 149.552 22.2623 149.126 22.7358C148.705 23.2045 148.165 23.5691 147.507 23.8295C146.849 24.0852 146.096 24.2131 145.248 24.2131ZM157.722 13.0909V15.0795H151.45V13.0909H157.722ZM152.999 10.4773H155.57V20.7188C155.57 21.0644 155.622 21.3295 155.726 21.5142C155.835 21.6941 155.977 21.8172 156.152 21.8835C156.327 21.9498 156.521 21.983 156.734 21.983C156.895 21.983 157.042 21.9711 157.175 21.9474C157.312 21.9238 157.416 21.9025 157.487 21.8835L157.92 23.8935C157.783 23.9408 157.587 23.9929 157.331 24.0497C157.08 24.1065 156.772 24.1397 156.408 24.1491C155.764 24.1681 155.184 24.071 154.668 23.858C154.152 23.6402 153.742 23.304 153.439 22.8494C153.141 22.3949 152.994 21.8267 152.999 21.1449V10.4773Z" fill="#27272A"/>
<path d="M22 0H6C2.68629 0 0 2.68629 0 6V22C0 25.3137 2.68629 28 6 28H22C25.3137 28 28 25.3137 28 22V6C28 2.68629 25.3137 0 22 0Z" fill="#22C55E"/>
<path d="M4.2642 20V5.45455H10.0028C11.1061 5.45455 12.0459 5.66525 12.8224 6.08665C13.599 6.50331 14.1908 7.08333 14.598 7.8267C15.0099 8.56534 15.2159 9.41761 15.2159 10.3835C15.2159 11.3494 15.0076 12.2017 14.5909 12.9403C14.1742 13.679 13.5705 14.2543 12.7798 14.6662C11.9938 15.0781 11.0421 15.2841 9.92472 15.2841H6.26705V12.8196H9.42756C10.0194 12.8196 10.5071 12.7178 10.8906 12.5142C11.2789 12.3059 11.5677 12.0194 11.7571 11.6548C11.9512 11.2855 12.0483 10.8617 12.0483 10.3835C12.0483 9.90057 11.9512 9.47917 11.7571 9.11932C11.5677 8.75473 11.2789 8.47301 10.8906 8.27415C10.5024 8.07055 10.0099 7.96875 9.41335 7.96875H7.33949V20H4.2642Z" fill="white"/>
<path d="M15.9602 16.3821L14.3196 16.5611C14.2732 16.3954 14.192 16.2396 14.076 16.0938C13.9633 15.9479 13.8108 15.8303 13.6186 15.7408C13.4264 15.6513 13.1911 15.6065 12.9126 15.6065C12.5381 15.6065 12.2232 15.6877 11.968 15.8501C11.7161 16.0125 11.5919 16.223 11.5952 16.4815C11.5919 16.7036 11.6731 16.8842 11.8388 17.0234C12.0078 17.1626 12.2862 17.277 12.674 17.3665L13.9766 17.6449C14.6991 17.8007 15.236 18.0476 15.5874 18.3857C15.942 18.7237 16.121 19.1662 16.1243 19.7131C16.121 20.1937 15.9801 20.6179 15.7017 20.9858C15.4266 21.3504 15.0438 21.6354 14.5533 21.8409C14.0627 22.0464 13.4993 22.1491 12.8629 22.1491C11.9283 22.1491 11.1759 21.9536 10.6058 21.5625C10.0357 21.1681 9.69602 20.6196 9.58665 19.9169L11.3416 19.7479C11.4212 20.0926 11.5902 20.3527 11.8487 20.5284C12.1072 20.7041 12.4437 20.7919 12.858 20.7919C13.2855 20.7919 13.6286 20.7041 13.8871 20.5284C14.1489 20.3527 14.2798 20.1357 14.2798 19.8771C14.2798 19.6584 14.1953 19.4777 14.0263 19.3352C13.8606 19.1927 13.602 19.0833 13.2507 19.0071L11.9482 18.7337C11.2157 18.5812 10.6738 18.3243 10.3224 17.9631C9.97112 17.5985 9.79711 17.1378 9.80043 16.581C9.79711 16.1103 9.92472 15.7027 10.1832 15.358C10.4451 15.0099 10.808 14.7415 11.272 14.5526C11.7393 14.3603 12.2779 14.2642 12.8878 14.2642C13.7827 14.2642 14.487 14.4548 15.0007 14.8359C15.5178 15.2171 15.8376 15.7325 15.9602 16.3821ZM19.408 17.5256V22H17.6083V11.8182H19.3683V15.6612H19.4577C19.6367 15.2304 19.9135 14.8906 20.288 14.642C20.6658 14.3902 21.1464 14.2642 21.7298 14.2642C22.2601 14.2642 22.7224 14.3752 23.1168 14.5973C23.5112 14.8194 23.8162 15.1442 24.0316 15.5717C24.2504 15.9993 24.3597 16.5213 24.3597 17.1378V22H22.56V17.4162C22.56 16.9025 22.4274 16.5031 22.1623 16.218C21.9004 15.9297 21.5326 15.7855 21.0586 15.7855C20.7404 15.7855 20.4554 15.8551 20.2035 15.9943C19.9549 16.1302 19.7594 16.3274 19.6168 16.5859C19.4776 16.8445 19.408 17.1577 19.408 17.5256Z" fill="white"/>
</svg>
